<svg id="Layer_1" data-name="Layer 1" xmlns="http://www.w3.org/2000/svg" viewBox="0 0 47.78 800"><defs><style>.cls-1{fill:#a41f35;stroke:#a41f35;stroke-miterlimit:10;}.cls-2{fill:#fff;}</style></defs><title>Artboard 1</title><rect class="cls-1" x="6.67" y="92.22" width="71.11" height="615.56" rx="12" ry="12"/><path class="cls-2" d="M20,447.3v-2.78H33.32V438h2.35v9.29Z"/><path class="cls-2" d="M20,435.33v-2.79h15.7v2.79Z"/><path class="cls-2" d="M20,428.63v-9.48h2.35v6.7h4.44v-5.69h2.35v5.69h6.55v2.78Z"/><path class="cls-2" d="M20,416.49v-9.43h2.35v6.65h4v-5.64h2.35v5.64h4.63v-6.89h2.35v9.67Z"/><path class="cls-2" d="M31.76,403.14a6.25,6.25,0,0,0,1.78-4.1c0-1.75-.79-2.74-2-2.74s-1.7,1-2.3,2.45l-.94,2.14a4.49,4.49,0,0,1-4.18,3.17c-2.5,0-4.42-2.21-4.42-5.26a6.94,6.94,0,0,1,2-4.85l1.78,1.44a5.07,5.07,0,0,0-1.34,3.41c0,1.49.7,2.45,1.85,2.45s1.68-1.2,2.21-2.5l.89-2.11c.79-1.87,2-3.17,4.25-3.17,2.54,0,4.66,2.11,4.66,5.64a8.08,8.08,0,0,1-2.3,5.64Z"/><path class="cls-2" d="M20,390.66v-5.28c0-3.43,1.2-6,4.85-6,3.48,0,5.09,2.59,5.09,6v2.5h5.76v2.78Zm7.7-5c0-2.35-.94-3.46-2.86-3.46s-2.62,1.18-2.62,3.46v2.26h5.47Z"/><path class="cls-2" d="M31.43,370.48v5.26L35.67,377v2.86L20,374.68v-3.26l15.7-5.11v3Zm-2.18.62-1.92.55c-1.66.48-3.46,1-5.18,1.42v.1c1.75.43,3.53.89,5.18,1.39l1.92.55Z"/><path class="cls-2" d="M20,364.43v-2.86l8.83-4.87,3.34-1.63V355c-1.61.14-3.6.36-5.35.36H20V352.7h15.7v2.86l-8.83,4.87-3.34,1.63v.1c1.66-.14,3.55-.36,5.3-.36h6.87v2.64Z"/></svg>