<svg id="Layer_1" data-name="Layer 1" xmlns="http://www.w3.org/2000/svg" viewBox="0 0 186.32 180"><defs><style>.cls-1{fill:#a41f35;}.cls-2{fill:#fff;}</style></defs><title>Artboard 1</title><circle class="cls-1" cx="93.16" cy="90" r="81.03"/><path class="cls-2" d="M44.29,75.21a9.77,9.77,0,0,1-.39,2.86,5.94,5.94,0,0,1-1.16,2.17,5.09,5.09,0,0,1-1.93,1.38,7,7,0,0,1-2.69.48A11.13,11.13,0,0,1,36.74,82a12.44,12.44,0,0,1-1.42-.27q0-.52.09-1t.09-1a.75.75,0,0,1,.23-.46.77.77,0,0,1,.54-.18,2.47,2.47,0,0,1,.58.09A4.29,4.29,0,0,0,39.07,79a2.22,2.22,0,0,0,1-.68,3.14,3.14,0,0,0,.58-1.22,7.28,7.28,0,0,0,.19-1.81V63.1h3.5Z"/><path class="cls-2" d="M66.22,72.5a10.51,10.51,0,0,1-.68,3.83,9,9,0,0,1-1.93,3,8.77,8.77,0,0,1-3,2,10.86,10.86,0,0,1-7.79,0,8.83,8.83,0,0,1-3-2,9,9,0,0,1-1.94-3,11,11,0,0,1,0-7.66,9,9,0,0,1,1.94-3,8.83,8.83,0,0,1,3-2,10.13,10.13,0,0,1,3.89-.72,10.53,10.53,0,0,1,2.69.33,9.43,9.43,0,0,1,2.31.94,8.56,8.56,0,0,1,1.89,1.47A9,9,0,0,1,65,67.56a9.45,9.45,0,0,1,.89,2.31A11,11,0,0,1,66.22,72.5Zm-3.58,0a8.63,8.63,0,0,0-.42-2.78,5.94,5.94,0,0,0-1.18-2.09,5.07,5.07,0,0,0-1.87-1.31,7,7,0,0,0-5,0,5.13,5.13,0,0,0-1.87,1.31,5.9,5.9,0,0,0-1.19,2.09,9.47,9.47,0,0,0,0,5.55,5.83,5.83,0,0,0,1.19,2.08,5.16,5.16,0,0,0,1.87,1.31,7,7,0,0,0,5,0,5.1,5.1,0,0,0,1.87-1.31,5.87,5.87,0,0,0,1.18-2.08A8.63,8.63,0,0,0,62.65,72.5Z"/><path class="cls-2" d="M72.82,81.89H69.31V63.1h3.51Z"/><path class="cls-2" d="M79.23,63.12a.93.93,0,0,1,.29.08,1,1,0,0,1,.24.17,2.73,2.73,0,0,1,.26.29l9.85,12.58q0-.46-.07-.9t0-.82V63.1h3.08v18.8H91.07a1.57,1.57,0,0,1-.7-.14,1.62,1.62,0,0,1-.54-.46L80,68.78q0,.42.06.83t0,.75V81.89H77V63.1h1.83Z"/><path class="cls-2" d="M115.7,63.1V66H110V81.89h-3.5V66h-5.67V63.1Z"/><path class="cls-2" d="M134,81.89h-3.51V73.68h-8.83v8.22h-3.51V63.1h3.51v8.09h8.83V63.1H134Z"/><path class="cls-2" d="M150.06,63.1v2.78h-8.35v5.21h6.58v2.69h-6.58V79.1h8.35v2.79H138.21V63.1Z"/><path class="cls-2" d="M30.83,94.32a.94.94,0,0,1,.29.08,1,1,0,0,1,.24.17,2.82,2.82,0,0,1,.26.29l9.85,12.58q0-.45-.07-.9c0-.29,0-.57,0-.82V94.3h3.08v18.8H42.67A1.58,1.58,0,0,1,42,113a1.63,1.63,0,0,1-.54-.46L31.62,100q0,.42.06.83c0,.27,0,.52,0,.75v11.54H28.62V94.3h1.83Z"/><path class="cls-2" d="M60.51,94.3v2.78H52.16v5.21h6.58V105H52.16v5.32h8.35v2.79H48.65V94.3Z"/><path class="cls-2" d="M76.73,94.3v2.87H71.06v15.92h-3.5V97.17H61.9V94.3Z"/><path class="cls-2" d="M77.33,94.3h2.92a1.29,1.29,0,0,1,.76.21,1,1,0,0,1,.41.58l3.2,11.25q.1.42.2.9l.2,1q.1-.54.23-1t.27-.9l3.69-11.25a1.23,1.23,0,0,1,.41-.55,1.15,1.15,0,0,1,.75-.25h1a1.18,1.18,0,0,1,.74.22,1.35,1.35,0,0,1,.43.57l3.68,11.25a16.35,16.35,0,0,1,.49,1.86q.17-1,.38-1.86l3.2-11.25a1,1,0,0,1,.4-.56,1.25,1.25,0,0,1,.76-.23h2.74l-5.84,18.8H95.22l-4.11-12.84q-.09-.25-.17-.53c-.05-.19-.1-.39-.16-.6,0,.21-.09.41-.15.6l-.16.53-4.15,12.84H83.15Z"/><path class="cls-2" d="M124,103.7a10.51,10.51,0,0,1-.68,3.83,9,9,0,0,1-1.93,3,8.76,8.76,0,0,1-3,2,10.86,10.86,0,0,1-7.79,0,8.84,8.84,0,0,1-3-2,9,9,0,0,1-1.94-3,11,11,0,0,1,0-7.66,9,9,0,0,1,1.94-3,8.86,8.86,0,0,1,3-2,10.14,10.14,0,0,1,3.89-.72,10.57,10.57,0,0,1,2.69.33,9.41,9.41,0,0,1,2.31.94,8.53,8.53,0,0,1,1.89,1.47,8.89,8.89,0,0,1,1.42,1.93,9.48,9.48,0,0,1,.89,2.31A11,11,0,0,1,124,103.7Zm-3.58,0a8.63,8.63,0,0,0-.42-2.78,6,6,0,0,0-1.18-2.09A5.08,5.08,0,0,0,117,97.52a7,7,0,0,0-5,0,5.14,5.14,0,0,0-1.87,1.31,5.9,5.9,0,0,0-1.19,2.09,9.47,9.47,0,0,0,0,5.55,5.83,5.83,0,0,0,1.19,2.08,5.15,5.15,0,0,0,1.87,1.31,7,7,0,0,0,5,0,5.09,5.09,0,0,0,1.87-1.31,5.89,5.89,0,0,0,1.18-2.08A8.63,8.63,0,0,0,120.47,103.7Z"/><path class="cls-2" d="M130.63,105.75v7.34h-3.5V94.3h5.73a11.9,11.9,0,0,1,3.28.4,6.26,6.26,0,0,1,2.25,1.11,4.35,4.35,0,0,1,1.29,1.71,5.62,5.62,0,0,1,.42,2.19,5.69,5.69,0,0,1-.28,1.79A5.18,5.18,0,0,1,139,103a5.41,5.41,0,0,1-1.3,1.21,6.78,6.78,0,0,1-1.76.83,3.48,3.48,0,0,1,1.14,1.08l4.71,6.94h-3.16a1.39,1.39,0,0,1-1.3-.7l-4-6a1.4,1.4,0,0,0-.49-.48,1.72,1.72,0,0,0-.79-.14Zm0-2.51h2.18a5.41,5.41,0,0,0,1.72-.25,3.32,3.32,0,0,0,1.21-.68,2.74,2.74,0,0,0,.71-1,3.57,3.57,0,0,0,.23-1.31,2.67,2.67,0,0,0-.94-2.2,4.51,4.51,0,0,0-2.88-.77h-2.24Z"/><path class="cls-2" d="M147.34,102.17h.82A2.13,2.13,0,0,0,149,102a1.39,1.39,0,0,0,.56-.44L154.73,95a1.87,1.87,0,0,1,.68-.58,2.18,2.18,0,0,1,.9-.16h3L153,102.11a3.52,3.52,0,0,1-1.16,1,2.69,2.69,0,0,1,.77.44,3.45,3.45,0,0,1,.66.74l6.53,8.8h-3.08a1.91,1.91,0,0,1-.93-.18,1.45,1.45,0,0,1-.51-.51L150,105.46a1.4,1.4,0,0,0-.57-.49,2.4,2.4,0,0,0-.94-.14h-1.11v8.27h-3.5V94.3h3.5Z"/></svg>